/* XPM */
static char *icon[] = {
    /* Values */
    "32 32 2 1",
    /* Colors */
    "1 c #000000",
    "0 c #ffffff",
    /* Pixels */
    "11111111111111111111111111111111",
    "10000000000000000000000000000001",
    "10000000000000000000000000000001",
    "10000000000000000000000000000001",
    "10000000000000000000000000000001",
    "10000000000000000000000000000001",
    "10000000000000000000000000000001",
    "10000111111111111111111111100001",
    "10000000000000000000000000000001",
    "10000000000000000000000000000001",
    "10000000000000000000000000000001",
    "10000000000000000000000000000001",
    "10000000000000000000000000000001",
    "10000000000000000000000000000001",
    "10000000000000000000000000000001",
    "10000111111111111111111111100001",
    "10000000000000000000000000000001",
    "10000000000000000000000000000001",
    "10000000000000000000000000000001",
    "10000000000000000000000000000001",
    "10000000000000000000000000000001",
    "10000000000000000000000000000001",
    "10000000000000000000000000000001",
    "10000111111111111111111111100001",
    "10000000000000000000000000000001",
    "10000000000000000000000000000001",
    "10000000000000000000000000000001",
    "10000000000000000000000000000001",
    "10000000000000000000000000000001",
    "10000000000000000000000000000001",
    "10000000000000000000000000000001",
    "11111111111111111111111111111111"
};
